PathFileType	4	(X/Y/Z)	C:/Users/beibeiliu/ov580/test_trc\sequence.12_training_dense_right.trc
DataRate	CameraRate	NumFrames	NumMarkers	Units	OrigDataRate	OrigDataStartFrame	OrigNumFrames
120	120	8	19	mm	120	82	324
Frame#	Time	ThumbCMC			ThumbMCP			ThumbIP			ThumbTip			IndexMCP			IndexPIP			IndexTip			MiddleMCP			MiddlePIP			MiddleTip			RingMCP			RingPIP			RingTip			PinkyMCP			PinkyPIP			PinkyTip			BackHand1			BackHand2			BackHand3	
		X0	Y0	Z0	X1	Y1	Z1	X2	Y2	Z2	X3	Y3	Z3	X4	Y4	Z4	X5	Y5	Z5	X6	Y6	Z6	X7	Y7	Z7	X8	Y8	Z8	X9	Y9	Z9	X10	Y10	Z10	X11	Y11	Z11	X12	Y12	Z12	X13	Y13	Z13	X14	Y14	Z14	X15	Y15	Z15	X16	Y16	Z16	X17	Y17	Z17	X18	Y18	Z18	
81	0.675	282.155	-48.8271	17.1906	288.345	-21.3229	20.2672	294.145	-0.874015	16.6948	294.462	18.3943	14.3653	250.814	-18.7825	-35.2882	244.759	-0.0145353	-48.4953	238.578	20.2146	-60.2356	218.222	-26.0779	-30.4378	203.371	-7.89468	-41.664	192.563	11.496	-51.4481	205.05	-31.3073	-13.8969	192.428	-12.7505	-24.0464	177.623	3.32439	-26.1891	193.666	-35.5121	9.91969	181.011	-22.8884	12.6661	167.58	-10.2817	10.6961	231.7	-65.715	5.8708	238.746	-84.2272	19.369	255.176	-67.2366	1.93076	
82	0.683333	280.167	-46.6682	16.2744	284.939	-20.7413	19.7145	288.915	0.899842	15.3191	294.84	19.6514	13.464	244.62	-15.9068	-34.8074	241.941	0.812886	-47.5675	236.331	19.6839	-56.1763	219.407	-22.4689	-29.6886	208.769	-6.51259	-42.5639	190.451	18.4207	-51.7028	202.605	-25.4719	-15.3391	190.706	-6.12789	-23.6782	180.097	8.34394	-26.0188	192.887	-33.1597	8.60159	178.859	-18.1568	11.7736	167.42	-5.11186	9.13588	223.635	-60.0956	2.00519	234.531	-79.7392	14.6987	251.778	-62.645	-0.437064	
83	0.691667	271.706	-48.2995	17.4431	281.711	-19.3749	20.1234	287.509	-1.13263	17.0819	294.632	18.464	14.3314	241.87	-15.3577	-32.5896	240.796	6.27541	-48.3655	237.888	26.9994	-57.8854	214.672	-19.9615	-28.3667	203.771	-1.34671	-40.7338	191.254	21.3099	-49.5345	202.579	-22.6363	-13.9091	188.201	-5.42401	-20.0896	178.719	16.2161	-27.8918	186.361	-25.7514	8.75855	175.399	-10.3422	9.93453	164.584	0.689692	9.46521	217.466	-59.335	2.54766	226.988	-80.0528	18.6409	246.204	-63.1878	-1.60665	
84	0.7	265.957	-47.5018	16.7932	273.084	-20.1512	19.7704	284.434	0.823004	17.1358	289.402	16.6132	16.7633	242.099	-10.8182	-34.4158	235.016	9.67718	-45.995	233.038	30.4546	-55.5835	212.741	-14.9664	-27.9346	198.478	6.15037	-42.2978	184.554	27.2165	-48.3796	196.071	-16.422	-16.7536	180.408	-0.672988	-19.3372	176.804	20.3322	-26.0765	183.967	-26.6134	9.80888	171.398	-10.9668	13.5034	162.653	5.57107	10.4078	215.521	-53.927	-1.28083	220.716	-75.7936	13.8125	238.535	-59.5653	-1.96221	
85	0.708333	259.469	-45.4793	14.8038	270.41	-21.0204	20.5121	277.274	0.0916351	18.0494	289.499	15.5132	18.4887	235.908	-9.29398	-31.683	233.052	11.3928	-45.9387	230.63	34.0714	-55.4942	207.381	-8.29521	-31.7761	194.76	7.58232	-39.7891	182.846	34.1568	-48.5226	187.458	-12.9959	-13.8565	180.504	4.71768	-20.909	169.038	25.6086	-23.4835	176.683	-18.4451	9.42964	167.75	-5.44971	12.6841	158.303	14.7364	11.7865	209.613	-53.2717	0.491708	214.977	-74.8146	15.8778	232.888	-61.0386	-0.527462	
86	0.716667	255.556	-45.2283	13.1604	268.449	-23.6962	20.9468	279.013	-1.19503	17.1562	288.196	12.6287	19.3088	232.188	-5.50639	-35.0278	230.724	12.5258	-44.4665	227.507	38.7212	-55.5275	202.308	-6.88786	-30.563	191.629	14.6661	-41.4674	183.719	40.9564	-47.7423	183.468	-7.15602	-16.0207	177.493	13.4561	-22.9371	172.072	34.9744	-26.16	173.878	-14.0741	8.06636	164.681	2.93899	9.47338	156.233	17.9104	10.4201	201.835	-47.7585	-1.11355	206.121	-72.6115	10.8477	226.749	-56.7155	-5.7696	
87	0.725	249.516	-47.3325	13.5524	263.307	-20.7115	17.5294	277.065	-2.30841	16.994	286.869	14.5968	16.9042	228.353	-3.47084	-35.5078	230.024	15.2246	-45.6241	234.069	36.9567	-55.4832	200.802	-0.564558	-33.6071	194.956	19.9184	-42.7985	184.008	43.4745	-46.9743	183.556	-2.35541	-18.3252	174.619	18.8687	-22.4722	172.235	39.0709	-25.8536	169.434	-8.77026	8.29787	163.778	8.84393	9.57934	153.867	26.7963	13.4786	194.992	-46.6758	-2.73531	200.366	-65.788	9.62542	221.548	-55.7789	-3.99776	
88	0.733333	244.68	-47.5552	13.0778	261.756	-23.5052	18.1609	271.101	-5.20517	16.4097	281.462	13.183	15.9172	225.852	-2.40865	-35.6956	227.883	19.9076	-49.5503	234.181	41.6073	-57.772	195.768	2.21517	-33.7071	191.502	22.1769	-43.1345	186.541	49.1713	-50.2623	184.017	3.70584	-21.2354	176.076	25.7292	-25.7119	169.732	47.5552	-26.8718	168.755	-3.78736	3.2952	160.604	15.3074	8.64384	153.491	34.9336	10.2122	193.356	-38.6746	-6.00872	196.324	-61.6953	5.81935	217.674	-52.5768	-7.82968	
